<svg xmlns="http://www.w3.org/2000/svg" viewBox="0 0 128 128"><path
		fill="#f2f2f2"
		d="M120.44353 81.326823q0 18.263421-13.56516 32.468297Q93.313219 128 75.070424 128q-7.640152 0-30.716514-4.52683l-23.855966-4.68293q-.935529 0-5.301322 2.65366-4.365794 2.65365-5.4572466 2.65365-1.7151325 0-2.1829054-.46829v-2.80977q14.812531-17.7951 18.086889-18.41951 2.338812.3122 13.09738 6.71221 10.758586 6.39999 15.280304 6.39999 2.494736 0 2.962492-6.39999-.155994 1.24878-.155994-7.96098v-8.74146q0-12.175609-1.559225-19.512194l-.467756-.468293q-3.586189 4.526828-5.301322 8.117072l-3.118434 1.092682q-17.307267-2.809754-27.59808-14.517071-8.8875109-10.146341-8.8875109-23.726828 0-20.136588 17.6191159-32.468288Q43.106464 0 63.99992 0q5.925002 0 17.930947 2.02927 12.005946 1.87317 18.086873 1.87317.93553 0 3.74211-1.71707 2.80659-1.71708 3.74212-1.71708 1.87105 0 1.87105 1.56098 0 .93658-3.89802 7.80487-3.74211 6.7122-4.98949 8.11708l-3.118432.93658q-3.118417-.31219-10.290796-3.59024-7.016472-3.43415-10.134888-3.74634l-1.871057 1.09268q-.935528 2.02927-.935528 5.46341 0 7.80488.467755 11.395126-.467755.62439-.467755 1.87317 0 3.590244 2.338812 5.775609 24.947419 11.395122 31.028349 16.390244 12.94147 10.614633 12.94147 27.785364zM69.769084 29.502436V18.8878q0-6.0878-.623679-7.80487-.62368-2.80976-3.430266-2.80976h-.467772q-3.742097 0-3.742097 9.36585 0 12.643903 1.091436 14.204879-.62368 1.404878-.62368 2.185367l.62368 2.029267q0 .1561-.155994.468293-.15582.312195-.311831.624389 0-.1561.467755 2.185367l-.467755 1.24878q0 3.902438 1.403284 5.307317 1.091452 0 2.962509-3.121951 2.026981-3.121951 2.33883-4.526828.155994-.468293.155994-4.526829v-.936586q0-2.029269.779604-3.278049zM112.33562 87.25853q0-11.707316-10.91449-21.853658-10.758572-10.302437-22.608593-10.302437h-2.962509l-1.247377.936585v20.760974q0 1.24878-.467756 3.746341-.467773 2.497561-.467773 3.746341v10.302439q0 18.107305.311849 23.102445.467756 2.65366 4.989473 2.65366 1.71515 0 10.758586-2.96586 9.19936-2.96586 9.978964-3.90245 6.080926-7.02439 11.070416-13.42438 1.55921-2.029269 1.55921-12.8M57.295384 52.917069q0-2.809756-.62368-8.585366-.467773-5.775609-.467773-8.585365 0-4.682926 1.091453-6.243902-.311849-2.497566-.311849-5.151216 0-1.40488.155994-2.80976v-6.86829q0-7.02439-1.871057-7.64878-.467756-.1561-1.403284-.1561H43.730299q-.467772 0-2.182905.93658-1.715133.78049-1.871057.78049-8.107907 2.65366-14.656606 9.52195-7.328303 7.64878-7.328303 15.45366 0-2.185367 1.871057 12.799999 3.586189 5.931705 4.677642 7.64878 1.091452 1.560976 3.118434 2.497559 7.796058 7.336585 17.775022 7.336585 3.58619 0 7.796076-3.746341 4.365794-3.746341 4.365794-7.180486zm12.161869 8.741462q0-6.556096-2.806585-6.556096h-.311849q-3.898038 2.809755-4.053945 5.307316-1.247377 28.097559-1.247377 33.560974v11.082935q0 11.70731 2.026981 13.26828h3.898038l.467756-.46828q1.403301-12.01952 1.403301-12.9561V91.473163q0 1.24878.311832-14.985363z"
		aria-label="S"
		style="stroke-width:1.73424"
	/></svg>
