<svg xmlns="http://www.w3.org/2000/svg" width="245" height="77" viewBox="0 0 2609 820" fill="none" role="img" aria-label="Sätteri">
  <path fill="#f2ead3" d="M724 521Q724 638 637 729Q550 820 433 820Q384 820 236 791L83 761Q77 761 49 778Q21 795 14 795Q3 795 0 792V774Q95 660 116 656Q131 658 200 699Q269 740 298 740Q314 740 317 699Q316 707 316 648V592Q316 514 306 467L303 464Q280 493 269 516L249 523Q138 505 72 430Q15 365 15 278Q15 149 128 70Q228 0 362 0Q400 0 477 12.5Q554 25 593 25Q599 25 617 14Q635 3 641 3Q653 3 653 13Q653 19 628.5 62.5Q604 106 596 115L576 121Q556 119 510.5 97.5Q465 76 445 74L433 81Q427 94 427 116Q427 166 430 189Q427 193 427 201Q427 224 442 238Q602 311 641 343Q724 411 724 521ZM399 189V121Q399 82 395 71Q391 53 373 53H370Q346 53 346 113Q346 194 353 204Q349 213 349 218L353 231Q353 232 352 234Q351 236 350 238Q350 237 353 252L350 260Q350 285 359 294Q366 294 378.5 274Q391 254 393 245Q394 242 394 216V210Q394 197 399 189ZM672 559Q672 484 602.5 418.5Q533 353 457 353H438L430 359V492Q430 500 427 516Q424 532 424 540V606Q424 722 426 754Q429 771 458 771Q469 771 527.5 752Q586 733 591 727Q630 682 662 641Q672 628 672 559ZM319 339Q319 321 315.5 284Q312 247 312 229Q312 199 319 189Q317 173 317 156Q317 147 318 138V94Q318 49 306 45Q303 44 297 44H232Q229 44 218 49.5Q207 55 206 55Q154 72 112 116Q65 165 65 215Q65 201 77 297Q100 335 107 345.5Q114 356 127 362Q177 409 241 409Q264 409 291.5 385Q319 361 319 339ZM397 395Q397 353 379 353H377Q352 371 351 387Q343 567 343 602V673Q343 748 356 758H381L384 755Q393 678 393 672V586Q393 594 395 490ZM1108 83Q1108 91 1086.5 99Q1065 107 1054 107Q1040 107 1040 84Q1040 46 1047 31Q1058 8 1092 8H1102L1108 15ZM929 80Q929 88 908.5 96.5Q888 105 877 105Q863 105 861 94V57Q860 53 860 44Q860 8 912 8Q929 8 929 15ZM1137 762Q1119 787 1111.5 793Q1104 799 1089 799Q1069 799 1057 786Q1047 776 1038 753L1030 752Q1066 752 975 776Q884 800 871 800Q830 800 816 780Q802 760 800 697L797 570Q797 413 828 388Q844 375 951 338Q1044 306 1044 280Q1044 257 1032.5 240.5Q1021 224 1006 224H951Q938 224 894 241Q850 258 839 258Q838 257 825 255L818 241Q833 221 916 200Q991 181 1027 181Q1121 181 1121 252V546Q1120 537 1120 511Q1121 656 1137 762ZM1044 586V366Q1041 355 1028 354Q984 354 943 377Q889 407 879 465Q874 494 874 564V665Q874 696 886.5 718Q899 740 919 740Q942 740 984 727Q1033 713 1038.5 698.5Q1044 684 1044 586ZM1413 227Q1413 253 1391 263Q1376 268 1373 267L1346 266L1333 277Q1333 339 1329.5 464Q1326 589 1326 652Q1326 673 1339 713Q1352 753 1352 746L1351 754Q1317 799 1304 799Q1274 799 1257 775.5Q1240 752 1240 716V601Q1238 507 1238 437Q1238 345 1246 289L1240 274L1212 259L1206 248Q1208 237 1227 212.5Q1246 188 1249 181Q1277 87 1286 66Q1306 17 1334 17Q1345 17 1345 25Q1345 50 1337 100Q1329 150 1329 175Q1329 200 1350 203L1392 209Q1413 212 1413 227ZM1655 227Q1655 253 1633 263Q1618 268 1615 267L1588 266L1575 277Q1575 339 1571.5 464Q1568 589 1568 652Q1568 673 1581 713Q1594 753 1594 746L1593 754Q1559 799 1546 799Q1516 799 1499 775.5Q1482 752 1482 716V601Q1480 507 1480 437Q1480 345 1488 289L1482 274L1454 259L1448 248Q1450 237 1469 212.5Q1488 188 1491 181Q1519 87 1528 66Q1548 17 1576 17Q1587 17 1587 25Q1587 50 1579 100Q1571 150 1571 175Q1571 200 1592 203L1634 209Q1655 212 1655 227ZM2035 404Q2035 480 1993 512Q1960 536 1877 546Q1824 552 1812 566.5Q1800 581 1800 626V640Q1800 699 1808 720Q1818 747 1858 747Q1891 747 1955 729.5Q2019 712 2009 712Q2026 712 2026 727Q2026 737 2023 743Q1916 799 1809 799Q1737 799 1722 751Q1718 737 1717 640L1716 485Q1716 432 1723 348L1729 279Q1736 198 1878 188Q1923 172 1961 172Q2001 172 2018 194Q2035 216 2035 266ZM1952 370Q1952 365 1948 356Q1951 347 1952 341Q1952 339 1950 332Q1948 325 1948 324Q1948 315 1949 298Q1950 281 1950 272Q1950 215 1905 215Q1800 215 1800 346Q1800 341 1802 395L1804 444Q1804 446 1802 461.5Q1800 477 1800 480Q1800 508 1810 524H1822Q1846 524 1883.5 508.5Q1921 493 1932 475Q1952 442 1952 370ZM2423 233Q2423 336 2355 336Q2336 336 2336 292V264L2328 250Q2318 246 2314 245Q2234 245 2234 333Q2234 351 2235 372L2237 411Q2237 438 2231 453Q2234 484 2234 517L2231 668Q2231 693 2258 719Q2275 735 2275 747Q2275 761 2258.5 777.5Q2242 794 2227 796Q2165 796 2149 749Q2141 726 2141 645Q2141 633 2146 513L2151 382Q2151 305 2148.5 291Q2146 277 2130 258Q2120 246 2120 237Q2120 219 2146 198.5Q2172 178 2190 178Q2200 178 2220 199Q2236 217 2248 227Q2263 227 2310 202.5Q2357 178 2370 178Q2392 178 2407.5 194.5Q2423 211 2423 233ZM2584 56Q2584 103 2522 103Q2504 103 2504 91V38Q2504 31 2527.5 19Q2551 7 2560 7Q2584 7 2584 42ZM2609 734Q2589 799 2559 799Q2541 799 2504 753V479Q2504 435 2505 390L2507 301Q2507 297 2493 272Q2479 247 2479 244Q2479 228 2499.5 205.5Q2520 183 2536 183Q2558 183 2572.5 204Q2587 225 2587 248V338Q2587 379 2584.5 459.5Q2582 540 2582 581Q2582 640 2584 661Q2589 711 2609 734Z" />
</svg>
