<svg xmlns="http://www.w3.org/2000/svg" viewBox="0 0 128 128">
<defs />
<style
	>path{fill:#14110c}@media (prefers-color-scheme:dark){path{fill:#f2ead3}}</style>
<path
		d="M108.33726 77.610484q0 14.346198-10.655641 25.504346-10.655635 11.15816-24.985631 11.15816-6.001457 0-24.128293-3.5559l-18.739228-3.67852q-.734873 0-4.16427 2.08449-3.429398 2.08449-4.286751 2.08449-1.347263 0-1.714706-.36785v-2.20712q11.635471-13.978324 14.207529-14.468807 1.837173.245238 10.288193 5.272544 8.451035 5.027293 12.002914 5.027293 1.959653 0 2.327083-5.027293-.122536.980933-.122536-6.253472v-6.866551q0-9.564128-1.224795-15.327129l-.367429-.367851q-2.817007 3.555893-4.16427 6.376085l-2.449578.858318q-13.595124-2.207105-21.678716-11.403382-6.981276-7.970107-6.981276-18.637788 0-15.817599 13.840086-25.504339 12.247862-8.583193 28.659992-8.583193 4.65418 0 14.085035 1.594023 9.430855 1.471404 14.207516 1.471404.734873 0 2.939485-1.348785 2.20462-1.348793 2.939493-1.348793 1.469738 0 1.469738 1.226174 0 .735698-3.061954 6.130845-2.939485 5.272536-3.919321 6.376091l-2.449576.735698q-2.449565-.24523-8.083579-2.820189-5.511546-2.697577-7.96111-2.942807l-1.469744.858317q-.734872 1.594022-.734872 4.291592 0 6.130853.367429 8.951047-.367429.490468-.367429 1.471404 0 2.820191 1.837173 4.536829 19.596581 8.951044 24.373245 12.874789 10.165724 8.337957 10.165724 21.82583zM68.531704 36.901632v-8.33796q0-4.78206-.489909-6.130845-.48991-2.20711-2.694527-2.20711h-.367442q-2.939475 0-2.939475 7.357019 0 9.93198.85734 11.158151-.48991 1.103553-.48991 1.716639l.48991 1.594021q0 .122619-.122536.367851-.122399.245234-.244948.490467 0-.122619.367429 1.71664l-.367429.980935q0 3.065425 1.102301 4.168979.857353 0 2.327097-2.45234 1.592225-2.45234 1.837187-3.555893.122535-.367851.122535-3.555894v-.735702q0-1.594022.612391-2.574958zm33.436666 45.368299q0-9.196277-8.573497-17.166384-8.451024-8.092723-17.759398-8.092723h-2.327096l-.979834.735702V74.05459q0 .980936-.367429 2.942809-.367443 1.961872-.367443 2.942808v8.092724q0 14.223569.244962 18.147329.36743 2.08449 3.919308 2.08449 1.347277 0 8.451034-2.32973 7.226239-2.32973 7.83863-3.06544 4.776661-5.517762 8.695983-10.545052 1.22478-1.594022 1.22478-10.054597M58.733421 55.294186q0-2.207107-.48991-6.743937-.367443-4.53683-.367443-6.743936 0-3.678511.857353-4.904681-.244962-1.961877-.244962-4.04636 0-1.103554.122536-2.207109v-5.395148q0-5.517766-1.469744-6.008234-.36743-.122619-1.102301-.122619h-7.961112q-.367442 0-1.714705.735698-1.347263.613087-1.469744.613087-6.368885 2.084491-11.512989 7.479638-5.756495 6.008234-5.756495 12.139088 0-1.71664 1.469744 10.054595 2.817007 4.659446 3.67436 6.008235.857352 1.22617 2.449578 1.961871 6.123923 5.763 13.962553 5.763 2.817007 0 6.123937-2.942809 3.429398-2.942808 3.429398-5.640382zm9.553335 6.866552q0-5.149914-2.204615-5.149914h-.244963q-3.061968 2.207106-3.184436 4.168979-.979834 22.071064-.979834 26.36266v8.705816q0 9.196271 1.592225 10.422441h3.061969l.367429-.36784q1.102315-9.441522 1.102315-10.17722V85.58059q0 .980936.244949-11.771233z"
		aria-label="S"
		style="stroke-width:1.36227"
	/></svg>
